<?xml version="1.0" encoding="UTF-8" standalone="no"?><!DOCTYPE svg PUBLIC "-//W3C//DTD SVG 1.1//EN" "http://www.w3.org/Graphics/SVG/1.1/DTD/svg11.dtd"><svg width="100%" height="100%" viewBox="0 0 32 32" version="1.1" xmlns="http://www.w3.org/2000/svg" xmlns:xlink="http://www.w3.org/1999/xlink" xml:space="preserve" xmlns:serif="http://www.serif.com/" style="fill-rule:evenodd;clip-rule:evenodd;stroke-linejoin:round;stroke-miterlimit:2;"><path d="M0,16l0,-16l0.126,-0c2.083,1.215 4.318,2.199 6.669,2.915c2.913,0.887 6.004,1.365 9.205,1.365c3.201,-0 6.292,-0.478 9.205,-1.365c2.351,-0.716 4.586,-1.7 6.669,-2.915l0.126,-0l0,16c0,8.831 -7.169,16 -16,16c-8.831,0 -16,-7.169 -16,-16Z" style="fill:#9adbfe;"/><clipPath id="_clip1"><path d="M0,16l0,-16l0.126,-0c2.083,1.215 4.318,2.199 6.669,2.915c2.913,0.887 6.004,1.365 9.205,1.365c3.201,-0 6.292,-0.478 9.205,-1.365c2.351,-0.716 4.586,-1.7 6.669,-2.915l0.126,-0l0,16c0,8.831 -7.169,16 -16,16c-8.831,0 -16,-7.169 -16,-16Z"/></clipPath><g clip-path="url(#_clip1)"><circle cx="3.641" cy="33.106" r="10.198" style="fill:#77baf1;"/><circle cx="28.334" cy="33.106" r="10.198" style="fill:#77baf1;"/><path d="M0,10.268l0,-10.268l32,-0l0,10.268c-1.656,-2.012 -4.166,-3.295 -6.973,-3.295c-1.672,-0 -3.239,0.456 -4.583,1.25c-2.742,1.617 -6.146,1.617 -8.888,-0c-1.344,-0.794 -2.911,-1.25 -4.583,-1.25c-2.807,-0 -5.317,1.283 -6.973,3.295Z" style="fill:#004b89;"/></g><circle cx="6.973" cy="16" r="3.332" style="fill:#004b89;"/><circle cx="25.002" cy="16" r="3.332" style="fill:#004b89;"/><path d="M13.704,18.296c-0,-1.267 1.029,-2.296 2.296,-2.296c1.267,0 2.296,1.029 2.296,2.296c0,0.331 -0.07,0.645 -0.196,0.93c-0.458,1.443 -1.597,3.681 -2.1,3.681c-0.503,0 -1.642,-2.238 -2.1,-3.681c-0.126,-0.285 -0.196,-0.599 -0.196,-0.93Z" style="fill:#004b89;"/></svg>