<?xml version="1.0" encoding="UTF-8" standalone="no"?><!DOCTYPE svg PUBLIC "-//W3C//DTD SVG 1.1//EN" "http://www.w3.org/Graphics/SVG/1.1/DTD/svg11.dtd"><svg width="100%" height="100%" viewBox="0 0 667 267" version="1.1" xmlns="http://www.w3.org/2000/svg" xmlns:xlink="http://www.w3.org/1999/xlink" xml:space="preserve" xmlns:serif="http://www.serif.com/" style="fill-rule:evenodd;clip-rule:evenodd;stroke-linejoin:round;stroke-miterlimit:2;"><ellipse cx="114.738" cy="231.963" rx="45.766" ry="6.904" style="fill:#004b89;fill-opacity:0.5;"/><path d="M113.841,207.213c-14.543,-8.643 -110.844,-71.113 -48.897,-176.397c0,-0 5.836,1.959 10.499,3.525c3.701,1.242 7.695,1.312 11.437,0.2c4.85,-1.442 11.908,-3.541 17.706,-5.265c6.625,-1.969 13.68,-1.969 20.304,0c5.313,1.58 11.683,3.474 16.443,4.889c4.565,1.357 9.436,1.272 13.951,-0.244c4.392,-1.475 9.249,-3.105 9.249,-3.105c61.947,105.284 -34.354,167.754 -48.897,176.397c-0.347,0.206 -0.647,0.381 -0.898,0.526c-0.25,-0.145 -0.55,-0.32 -0.897,-0.526Z" style="fill:url(#_Linear1);"/><clipPath id="_clip2"><path d="M113.841,207.213c-14.543,-8.643 -110.844,-71.113 -48.897,-176.397c0,-0 5.836,1.959 10.499,3.525c3.701,1.242 7.695,1.312 11.437,0.2c4.85,-1.442 11.908,-3.541 17.706,-5.265c6.625,-1.969 13.68,-1.969 20.304,0c5.313,1.58 11.683,3.474 16.443,4.889c4.565,1.357 9.436,1.272 13.951,-0.244c4.392,-1.475 9.249,-3.105 9.249,-3.105c61.947,105.284 -34.354,167.754 -48.897,176.397c-0.347,0.206 -0.647,0.381 -0.898,0.526c-0.25,-0.145 -0.55,-0.32 -0.897,-0.526Z"/></clipPath><g clip-path="url(#_clip2)"><path d="M45.303,75.342l0,-24.109l44.723,0l-0,2.811c-3.177,-0.862 -6.519,-1.322 -9.967,-1.322c-15.5,-0 -28.846,9.3 -34.756,22.62Z" style="fill:url(#_Linear3);"/><path d="M184.033,75.342l0,-24.109l-44.723,0l0,2.811c3.177,-0.862 6.519,-1.322 9.967,-1.322c15.501,-0 28.846,9.3 34.756,22.62Z" style="fill:url(#_Linear4);"/><path d="M80.516,52.753l-28.904,-0l0,-36.984l131.031,0l-0,36.984l-33.683,-0c-15.87,-0 -29.366,10.502 -34.222,25.089c-4.855,-14.587 -18.351,-25.089 -34.222,-25.089Z" style="fill:url(#_Linear5);"/><circle cx="44.369" cy="164.251" r="57.296" style="fill:url(#_Linear6);"/><circle cx="185.108" cy="164.251" r="57.296" style="fill:url(#_Linear7);"/></g><circle cx="80.516" cy="91.611" r="11.544" style="fill:#004b89;"/><circle cx="148.96" cy="91.611" r="11.544" style="fill:#004b89;"/><path d="M105.698,102.398c0,-4.989 4.051,-9.04 9.04,-9.04c4.99,0 9.041,4.051 9.041,9.04c-0,1.302 -0.276,2.541 -0.773,3.659c-1.803,5.685 -6.289,14.494 -8.268,14.494c-1.978,0 -6.464,-8.809 -8.267,-14.494c-0.497,-1.118 -0.773,-2.357 -0.773,-3.659Z" style="fill:#004b89;"/><g transform="matrix(157.053,0,0,157.053,546.555,154.275)"></g><text x="218.628px" y="154.275px" style="font-family:'SansSerifCollection', 'Sans Serif Collection', sans-serif;font-size:157.053px;fill:#004b89;">R<tspan x="306.735px 394.214px 449.496px " y="154.275px 154.275px 154.275px ">uru</tspan></text><g transform="matrix(0.973074,0,0,1,4.30247,0)"><g transform="matrix(46.3198,0,0,46.3198,397.661,207.677)"></g><g transform="matrix(46.3198,0,0,46.3198,397.661,207.677)"></g><g transform="matrix(46.3198,0,0,46.3198,402.617,207.677)"></g><g transform="matrix(46.3198,0,0,46.3198,402.617,207.677)"></g><g transform="matrix(46.3198,0,0,46.3198,639.033,207.677)"></g><text x="234.059px" y="207.677px" style="font-family:'SansSerifCollection', 'Sans Serif Collection', sans-serif;font-size:46.32px;fill:#004b89;">I<tspan x="248.604px 276.071px 291.635px 316.601px 334.573px 362.041px 386.868px 407.573px 440.228px 465.056px 486.085px 513.553px 540.881px 567.747px 592.574px 610.546px " y="207.677px 207.677px 207.677px 207.677px 207.677px 207.677px 207.677px 207.677px 207.677px 207.677px 207.677px 207.677px 207.677px 207.677px 207.677px 207.677px ">nternalDashboard</tspan></text></g><defs><linearGradient id="_Linear1" x1="0" y1="0" x2="1" y2="0" gradientUnits="userSpaceOnUse" gradientTransform="matrix(-2.41667e-14,150.279,-150.279,-2.41667e-14,114.738,57.6698)"><stop offset="0" style="stop-color:#a0deff;stop-opacity:1"/><stop offset="1" style="stop-color:#6bc8ff;stop-opacity:1"/></linearGradient><linearGradient id="_Linear3" x1="0" y1="0" x2="1" y2="0" gradientUnits="userSpaceOnUse" gradientTransform="matrix(9.91185e-16,-16.1873,24.9443,1.5274e-15,51.6125,69.1058)"><stop offset="0" style="stop-color:#9cdcff;stop-opacity:1"/><stop offset="1" style="stop-color:#2c9eeb;stop-opacity:1"/></linearGradient><linearGradient id="_Linear4" x1="0" y1="0" x2="1" y2="0" gradientUnits="userSpaceOnUse" gradientTransform="matrix(-9.91185e-16,-16.1873,-24.9443,1.5274e-15,177.724,69.1058)"><stop offset="0" style="stop-color:#9cdcff;stop-opacity:1"/><stop offset="1" style="stop-color:#2c9eeb;stop-opacity:1"/></linearGradient><linearGradient id="_Linear5" x1="0" y1="0" x2="1" y2="0" gradientUnits="userSpaceOnUse" gradientTransform="matrix(3.38676e-15,-56.6709,55.31,3.47009e-15,114.738,77.8416)"><stop offset="0" style="stop-color:#2db1f8;stop-opacity:1"/><stop offset="1" style="stop-color:#2a87dc;stop-opacity:1"/></linearGradient><linearGradient id="_Linear6" x1="0" y1="0" x2="1" y2="0" gradientUnits="userSpaceOnUse" gradientTransform="matrix(-1.39019e-14,86.4479,-86.4479,-1.39019e-14,44.3692,106.955)"><stop offset="0" style="stop-color:#8fd7ff;stop-opacity:0.5"/><stop offset="1" style="stop-color:#2db0f7;stop-opacity:0.5"/></linearGradient><linearGradient id="_Linear7" x1="0" y1="0" x2="1" y2="0" gradientUnits="userSpaceOnUse" gradientTransform="matrix(-1.39019e-14,86.4479,-86.4479,-1.39019e-14,185.108,106.955)"><stop offset="0" style="stop-color:#8fd7ff;stop-opacity:0.5"/><stop offset="1" style="stop-color:#2db0f7;stop-opacity:0.5"/></linearGradient></defs></svg>